<svg id="svg" version="1.1" xmlns="http://www.w3.org/2000/svg" xmlns:xlink="http://www.w3.org/1999/xlink" width="400" height="400" viewBox="0, 0, 400,400"><g id="svgg"><path id="path0" d="M325.400 29.547 C 312.665 32.898,312.152 51.181,324.682 55.135 C 337.996 59.337,348.036 42.891,338.200 32.991 C 335.232 30.004,329.511 28.465,325.400 29.547 M213.200 79.629 C 208.525 80.135,203.341 81.036,197.200 82.410 C 193.843 83.161,188.072 84.903,185.400 85.973 C 149.600 100.303,122.551 130.036,113.853 164.622 C 106.405 194.237,110.383 226.630,124.474 251.117 C 127.501 256.377,133.340 265.028,134.789 266.400 C 134.905 266.510,135.972 267.770,137.159 269.200 C 153.206 288.522,175.647 302.360,199.800 307.827 C 210.076 310.153,229.256 311.236,238.471 310.010 C 240.082 309.796,242.390 309.538,243.600 309.437 C 288.927 305.655,334.413 260.433,340.400 213.200 C 340.664 211.110,341.015 209.040,341.179 208.600 C 341.646 207.341,341.705 185.825,341.249 182.863 C 341.023 181.398,340.641 178.670,340.399 176.800 C 339.428 169.295,336.470 157.831,334.051 152.200 C 333.862 151.760,333.519 150.950,333.289 150.400 C 332.430 148.343,327.574 138.533,326.558 136.800 C 316.892 120.324,300.500 103.946,283.917 94.198 C 280.145 91.980,268.376 86.400,267.471 86.400 C 267.175 86.400,266.821 86.288,266.684 86.150 C 266.191 85.658,258.508 83.239,254.800 82.410 C 248.075 80.905,243.324 80.108,238.058 79.600 C 233.251 79.136,217.583 79.154,213.200 79.629 M257.000 134.940 C 273.727 137.858,283.302 147.736,285.759 164.606 C 286.489 169.624,286.725 219.847,286.035 223.480 C 285.835 224.536,285.460 226.696,285.203 228.279 C 283.110 241.156,273.625 250.995,260.200 254.216 C 251.219 256.371,204.512 256.629,193.157 254.586 C 178.661 251.978,168.680 242.115,166.038 227.785 C 164.312 218.421,164.306 170.508,166.030 162.004 C 168.944 147.632,178.504 138.062,192.840 135.166 C 198.894 133.942,250.247 133.762,257.000 134.940 M200.600 145.588 C 185.964 146.670,178.984 152.527,176.753 165.600 C 176.145 169.160,175.841 210.341,176.363 218.384 C 177.274 232.424,180.938 238.577,190.699 242.457 C 198.830 245.689,251.944 245.637,260.833 242.388 C 269.134 239.354,273.716 232.778,274.784 222.366 C 275.342 216.931,275.331 172.356,274.771 167.284 C 273.446 155.288,267.747 148.744,256.381 146.169 C 253.105 145.427,208.999 144.967,200.600 145.588 M262.064 156.355 C 268.283 160.298,265.606 169.619,258.236 169.685 C 250.603 169.754,248.002 159.836,254.632 155.944 C 256.585 154.797,259.897 154.980,262.064 156.355 M235.281 165.093 C 255.910 172.156,263.578 196.573,250.588 213.834 C 231.097 239.730,189.777 221.777,194.813 189.600 C 195.267 186.702,195.645 185.505,197.342 181.600 C 203.289 167.912,221.003 160.205,235.281 165.093 M222.200 175.050 C 218.589 175.599,213.974 178.125,211.210 181.065 C 201.781 191.095,204.636 206.832,217.006 213.006 L 220.200 214.600 225.600 214.600 L 231.000 214.600 234.120 213.117 C 255.061 203.162,245.164 171.557,222.200 175.050 " stroke="none" fill="#db079c" fill-rule="evenodd"></path><path id="path1" d="M113.800 96.651 C 83.529 101.228,64.443 130.192,72.055 160.000 C 76.063 175.695,88.634 189.190,104.341 194.659 C 110.237 196.712,109.862 196.966,110.176 190.700 C 111.782 158.608,122.142 135.036,144.472 112.659 C 151.839 105.276,151.416 106.202,148.331 104.214 C 138.891 98.131,124.645 95.010,113.800 96.651 M162.628 293.291 C 155.606 326.550,174.505 357.795,208.028 368.350 C 214.033 370.241,228.407 370.831,236.286 369.510 C 251.577 366.947,266.141 357.971,275.788 345.164 C 280.247 339.245,280.255 339.947,275.704 337.772 C 264.073 332.214,254.296 323.466,244.800 310.118 C 244.211 309.290,244.123 309.285,240.000 309.818 C 215.803 312.950,187.688 307.230,167.523 295.074 C 162.781 292.215,162.850 292.240,162.628 293.291 " stroke="none" fill="#f6cb19" fill-rule="evenodd"></path><path id="path2" d="M172.305 41.483 C 172.802 41.579,173.522 41.575,173.905 41.475 C 174.287 41.375,173.880 41.296,173.000 41.301 C 172.120 41.305,171.807 41.387,172.305 41.483 M178.305 41.483 C 178.802 41.579,179.522 41.575,179.905 41.475 C 180.287 41.375,179.880 41.296,179.000 41.301 C 178.120 41.305,177.807 41.387,178.305 41.483 M266.000 44.400 C 266.000 44.620,266.270 44.800,266.600 44.800 C 266.930 44.800,267.200 44.620,267.200 44.400 C 267.200 44.180,266.930 44.000,266.600 44.000 C 266.270 44.000,266.000 44.180,266.000 44.400 M200.000 47.400 C 200.000 47.730,200.180 48.000,200.400 48.000 C 200.620 48.000,200.800 47.730,200.800 47.400 C 200.800 47.070,200.620 46.800,200.400 46.800 C 200.180 46.800,200.000 47.070,200.000 47.400 M275.200 47.400 C 275.200 47.730,275.380 48.000,275.600 48.000 C 275.820 48.000,276.000 47.730,276.000 47.400 C 276.000 47.070,275.820 46.800,275.600 46.800 C 275.380 46.800,275.200 47.070,275.200 47.400 M190.543 50.205 C 190.415 50.538,190.535 51.080,190.808 51.410 C 191.422 52.150,192.400 51.499,192.400 50.351 C 192.400 49.432,190.885 49.313,190.543 50.205 M186.163 52.151 C 185.840 52.995,186.294 53.600,187.251 53.600 C 187.856 53.600,188.024 53.377,187.928 52.704 C 187.779 51.658,186.506 51.260,186.163 52.151 M181.888 54.515 C 181.571 55.342,182.190 56.099,183.048 55.934 C 184.111 55.729,184.032 54.233,182.951 54.079 C 182.484 54.012,182.006 54.209,181.888 54.515 M177.734 57.027 C 177.602 57.372,177.686 57.846,177.920 58.080 C 178.542 58.702,179.600 58.156,179.600 57.213 C 179.600 56.226,178.099 56.077,177.734 57.027 M156.520 60.400 C 156.520 61.610,156.595 62.105,156.687 61.500 C 156.778 60.895,156.778 59.905,156.687 59.300 C 156.595 58.695,156.520 59.190,156.520 60.400 M173.880 59.053 C 173.177 59.756,173.624 60.800,174.628 60.800 C 175.464 60.800,175.632 60.633,175.528 59.904 C 175.401 59.017,174.422 58.511,173.880 59.053 M169.734 62.227 C 169.602 62.572,169.686 63.046,169.920 63.280 C 170.542 63.902,171.600 63.356,171.600 62.413 C 171.600 61.426,170.099 61.277,169.734 62.227 M166.086 64.896 C 165.497 65.606,166.105 66.515,167.048 66.334 C 167.968 66.157,168.061 64.661,167.163 64.488 C 166.813 64.421,166.328 64.604,166.086 64.896 M162.442 67.749 C 161.839 68.475,162.300 69.600,163.200 69.600 C 164.177 69.600,164.500 68.557,163.754 67.812 C 163.010 67.067,163.008 67.067,162.442 67.749 M312.400 68.400 C 312.400 68.620,312.670 68.800,313.000 68.800 C 313.330 68.800,313.600 68.620,313.600 68.400 C 313.600 68.180,313.330 68.000,313.000 68.000 C 312.670 68.000,312.400 68.180,312.400 68.400 M159.200 71.213 C 159.200 71.991,160.202 72.732,160.650 72.284 C 160.950 71.983,160.056 70.400,159.586 70.400 C 159.374 70.400,159.200 70.766,159.200 71.213 M155.600 74.800 C 155.600 75.020,155.870 75.200,156.200 75.200 C 156.530 75.200,156.800 75.020,156.800 74.800 C 156.800 74.580,156.530 74.400,156.200 74.400 C 155.870 74.400,155.600 74.580,155.600 74.800 M322.978 78.035 C 322.566 78.702,323.493 79.467,324.045 78.915 C 324.507 78.453,324.218 77.600,323.600 77.600 C 323.406 77.600,323.126 77.796,322.978 78.035 M378.493 79.200 C 378.493 79.970,378.575 80.285,378.676 79.900 C 378.776 79.515,378.776 78.885,378.676 78.500 C 378.575 78.115,378.493 78.430,378.493 79.200 M174.112 79.495 C 175.164 79.577,176.784 79.576,177.712 79.492 C 178.640 79.408,177.780 79.341,175.800 79.342 C 173.820 79.343,173.060 79.412,174.112 79.495 M325.441 81.436 C 325.116 82.283,325.479 82.800,326.400 82.800 C 326.814 82.800,327.254 82.636,327.378 82.436 C 327.760 81.817,327.152 80.800,326.400 80.800 C 326.007 80.800,325.576 81.086,325.441 81.436 M149.200 82.000 C 149.200 82.220,149.470 82.400,149.800 82.400 C 150.130 82.400,150.400 82.220,150.400 82.000 C 150.400 81.780,150.130 81.600,149.800 81.600 C 149.470 81.600,149.200 81.780,149.200 82.000 M328.545 85.000 C 328.191 85.920,328.717 86.875,329.494 86.725 C 330.362 86.558,330.666 85.214,329.939 84.754 C 329.158 84.259,328.805 84.321,328.545 85.000 M378.501 87.400 C 378.505 88.280,378.587 88.593,378.683 88.095 C 378.779 87.598,378.775 86.878,378.675 86.495 C 378.575 86.113,378.496 86.520,378.501 87.400 M331.480 88.653 C 330.777 89.356,331.224 90.400,332.228 90.400 C 333.064 90.400,333.232 90.233,333.128 89.504 C 333.001 88.617,332.022 88.111,331.480 88.653 M143.200 89.400 C 143.200 89.730,143.380 90.000,143.600 90.000 C 143.820 90.000,144.000 89.730,144.000 89.400 C 144.000 89.070,143.820 88.800,143.600 88.800 C 143.380 88.800,143.200 89.070,143.200 89.400 M334.280 92.653 C 333.577 93.356,334.024 94.400,335.028 94.400 C 335.864 94.400,336.032 94.233,335.928 93.504 C 335.801 92.617,334.822 92.111,334.280 92.653 M140.800 93.400 C 140.800 93.730,140.980 94.000,141.200 94.000 C 141.420 94.000,141.600 93.730,141.600 93.400 C 141.600 93.070,141.420 92.800,141.200 92.800 C 140.980 92.800,140.800 93.070,140.800 93.400 M336.552 96.981 C 336.242 97.789,336.703 98.400,337.624 98.400 C 338.185 98.400,338.400 98.123,338.400 97.400 C 338.400 96.274,336.950 95.945,336.552 96.981 M339.224 100.785 C 338.460 101.257,338.890 102.600,339.805 102.600 C 340.311 102.600,340.644 102.291,340.721 101.751 C 340.853 100.825,340.025 100.290,339.224 100.785 M341.480 105.053 C 340.795 105.739,341.208 106.855,342.100 106.728 C 342.688 106.644,343.000 106.325,343.000 105.805 C 343.000 105.012,342.011 104.522,341.480 105.053 M343.012 109.580 C 342.663 110.146,344.392 110.968,344.888 110.472 C 345.109 110.251,345.169 109.874,345.022 109.635 C 344.690 109.099,343.332 109.062,343.012 109.580 M349.500 110.695 C 350.655 110.776,352.545 110.776,353.700 110.695 C 354.855 110.614,353.910 110.548,351.600 110.548 C 349.290 110.548,348.345 110.614,349.500 110.695 M347.200 119.000 C 347.200 119.330,347.380 119.600,347.600 119.600 C 347.820 119.600,348.000 119.330,348.000 119.000 C 348.000 118.670,347.820 118.400,347.600 118.400 C 347.380 118.400,347.200 118.670,347.200 119.000 M352.678 142.256 C 352.358 142.575,352.719 143.200,353.224 143.200 C 353.431 143.200,353.600 142.930,353.600 142.600 C 353.600 141.981,353.128 141.805,352.678 142.256 M347.200 194.600 C 347.200 194.930,347.380 195.200,347.600 195.200 C 347.820 195.200,348.000 194.930,348.000 194.600 C 348.000 194.270,347.820 194.000,347.600 194.000 C 347.380 194.000,347.200 194.270,347.200 194.600 M341.470 207.761 C 341.352 208.070,341.353 208.700,341.474 209.161 C 341.600 209.643,341.503 210.000,341.247 210.000 C 340.968 210.000,340.800 210.893,340.800 212.376 C 340.800 213.683,340.620 214.864,340.400 215.000 C 340.180 215.136,340.000 216.216,340.000 217.400 C 340.000 218.584,339.820 219.664,339.600 219.800 C 339.380 219.936,339.200 220.656,339.200 221.400 C 339.200 222.144,339.020 222.864,338.800 223.000 C 338.580 223.136,338.400 223.957,338.400 224.824 C 338.400 225.691,338.220 226.400,338.000 226.400 C 337.780 226.400,337.600 226.929,337.600 227.576 C 337.600 228.223,337.420 228.864,337.200 229.000 C 336.980 229.136,336.800 229.676,336.800 230.200 C 336.800 230.724,336.620 231.264,336.400 231.400 C 336.180 231.536,336.000 232.177,336.000 232.824 C 336.000 233.471,335.820 234.000,335.600 234.000 C 335.380 234.000,335.200 234.450,335.200 235.000 C 335.200 235.550,335.020 236.000,334.800 236.000 C 334.580 236.000,334.400 236.540,334.400 237.200 C 334.400 237.860,334.220 238.400,334.000 238.400 C 333.780 238.400,333.600 238.760,333.600 239.200 C 333.600 239.640,333.420 240.000,333.200 240.000 C 332.980 240.000,332.800 240.450,332.800 241.000 C 332.800 241.550,332.620 242.000,332.400 242.000 C 332.180 242.000,332.001 242.225,332.003 242.500 C 332.007 243.133,328.712 249.754,328.304 249.933 C 328.137 250.007,328.000 250.322,328.000 250.633 C 328.000 250.945,327.820 251.200,327.600 251.200 C 327.380 251.200,327.200 251.560,327.200 252.000 C 327.200 252.440,327.042 252.800,326.849 252.800 C 326.655 252.800,326.273 253.340,326.000 254.000 C 325.727 254.660,325.345 255.200,325.151 255.200 C 324.958 255.200,324.800 255.560,324.800 256.000 C 324.800 256.440,324.632 256.800,324.426 256.800 C 324.220 256.800,323.647 257.520,323.152 258.400 C 322.657 259.280,322.106 260.000,321.926 260.000 C 321.747 260.000,321.600 260.236,321.600 260.525 C 321.600 260.813,321.280 261.398,320.889 261.825 C 320.498 262.251,319.742 263.230,319.208 264.000 C 318.675 264.770,317.951 265.670,317.600 266.000 C 317.249 266.330,316.580 267.148,316.112 267.818 C 313.738 271.220,302.508 282.472,299.127 284.834 C 298.397 285.345,297.530 286.049,297.200 286.400 C 296.870 286.751,295.970 287.475,295.200 288.008 C 294.430 288.542,293.451 289.298,293.025 289.689 C 292.598 290.080,292.028 290.400,291.758 290.400 C 291.488 290.400,291.207 290.560,291.133 290.756 C 290.955 291.232,284.244 295.432,280.000 297.724 C 270.840 302.671,259.469 306.658,248.900 308.628 C 244.621 309.425,244.781 309.184,246.668 312.005 C 257.284 327.879,274.946 339.787,292.300 342.770 C 293.675 343.007,295.925 343.398,297.300 343.640 C 298.675 343.883,303.159 344.082,307.265 344.083 C 330.302 344.090,349.571 334.957,363.804 317.284 C 368.875 310.987,371.253 307.018,374.994 298.600 C 375.903 296.554,377.553 290.656,378.743 285.200 C 384.448 259.040,371.620 227.501,349.051 212.200 C 347.104 210.880,344.719 209.215,343.752 208.500 C 341.733 207.008,341.756 207.015,341.470 207.761 M21.324 213.400 C 21.326 214.720,21.401 215.212,21.490 214.493 C 21.579 213.774,21.577 212.694,21.486 212.093 C 21.395 211.492,21.322 212.080,21.324 213.400 M21.324 230.600 C 21.326 231.920,21.401 232.412,21.490 231.693 C 21.579 230.974,21.577 229.894,21.486 229.293 C 21.395 228.692,21.322 229.280,21.324 230.600 M99.500 309.089 C 100.215 309.178,101.385 309.178,102.100 309.089 C 102.815 309.001,102.230 308.928,100.800 308.928 C 99.370 308.928,98.785 309.001,99.500 309.089 M114.707 309.090 C 115.426 309.179,116.506 309.177,117.107 309.086 C 117.708 308.995,117.120 308.922,115.800 308.924 C 114.480 308.926,113.988 309.001,114.707 309.090 " stroke="none" fill="#738bf6" fill-rule="evenodd"></path><path id="path3" d="M172.127 40.612 C 156.306 43.380,150.159 63.591,161.751 74.723 C 174.643 87.102,195.991 78.172,195.991 60.400 C 195.991 47.687,184.788 38.397,172.127 40.612 M237.334 40.627 C 237.001 41.496,237.847 42.313,238.453 41.707 C 238.965 41.195,238.648 40.000,238.000 40.000 C 237.766 40.000,237.467 40.282,237.334 40.627 M227.797 40.805 C 227.644 41.052,227.628 41.361,227.760 41.493 C 227.892 41.625,228.000 41.523,228.000 41.267 C 228.000 41.010,228.180 40.800,228.400 40.800 C 228.925 40.800,228.917 41.875,228.390 42.137 C 228.165 42.248,228.210 42.294,228.490 42.237 C 229.127 42.108,229.165 40.722,228.537 40.512 C 228.282 40.427,227.949 40.559,227.797 40.805 M232.578 40.835 C 232.229 41.400,233.000 42.171,233.565 41.822 C 234.200 41.429,234.097 40.400,233.424 40.400 C 233.107 40.400,232.726 40.596,232.578 40.835 M238.400 41.000 C 238.400 41.330,238.220 41.600,238.000 41.600 C 237.780 41.600,237.600 41.330,237.600 41.000 C 237.600 40.670,237.780 40.400,238.000 40.400 C 238.220 40.400,238.400 40.670,238.400 41.000 M242.178 40.835 C 241.829 41.400,242.600 42.171,243.165 41.822 C 243.800 41.429,243.697 40.400,243.024 40.400 C 242.707 40.400,242.326 40.596,242.178 40.835 M246.934 41.027 C 246.601 41.896,247.447 42.713,248.053 42.107 C 248.565 41.595,248.248 40.400,247.600 40.400 C 247.366 40.400,247.067 40.682,246.934 41.027 M248.000 41.400 C 248.000 41.730,247.820 42.000,247.600 42.000 C 247.380 42.000,247.200 41.730,247.200 41.400 C 247.200 41.070,247.380 40.800,247.600 40.800 C 247.820 40.800,248.000 41.070,248.000 41.400 M173.905 41.475 C 173.522 41.575,172.802 41.579,172.305 41.483 C 171.807 41.387,172.120 41.305,173.000 41.301 C 173.880 41.296,174.287 41.375,173.905 41.475 M179.905 41.475 C 179.522 41.575,178.802 41.579,178.305 41.483 C 177.807 41.387,178.120 41.305,179.000 41.301 C 179.880 41.296,180.287 41.375,179.905 41.475 M222.978 41.635 C 222.629 42.200,223.400 42.971,223.965 42.622 C 224.600 42.229,224.497 41.200,223.824 41.200 C 223.507 41.200,223.126 41.396,222.978 41.635 M251.676 41.900 C 251.750 42.285,252.076 42.600,252.400 42.600 C 252.724 42.600,253.050 42.285,253.124 41.900 C 253.218 41.409,253.002 41.200,252.400 41.200 C 251.798 41.200,251.582 41.409,251.676 41.900 M218.984 42.139 C 219.543 42.548,219.599 42.753,219.216 42.990 C 218.922 43.172,218.564 43.072,218.361 42.751 C 218.132 42.389,218.010 42.363,218.006 42.676 C 217.996 43.434,218.781 43.713,219.422 43.181 C 220.048 42.662,219.546 41.600,218.675 41.600 C 218.439 41.600,218.579 41.843,218.984 42.139 M256.534 42.227 C 256.201 43.096,257.047 43.913,257.653 43.307 C 258.165 42.795,257.848 41.600,257.200 41.600 C 256.966 41.600,256.667 41.882,256.534 42.227 M257.600 42.600 C 257.600 42.930,257.420 43.200,257.200 43.200 C 256.980 43.200,256.800 42.930,256.800 42.600 C 256.800 42.270,256.980 42.000,257.200 42.000 C 257.420 42.000,257.600 42.270,257.600 42.600 M213.619 42.978 C 213.087 43.619,213.366 44.404,214.124 44.394 C 214.437 44.390,214.411 44.268,214.049 44.039 C 213.728 43.836,213.628 43.478,213.810 43.184 C 214.047 42.801,214.252 42.857,214.661 43.416 C 214.957 43.821,215.200 43.961,215.200 43.725 C 215.200 42.854,214.138 42.352,213.619 42.978 M261.261 42.927 C 260.893 43.369,260.927 43.607,261.412 44.010 C 262.346 44.785,263.207 43.836,262.348 42.977 C 261.818 42.447,261.665 42.440,261.261 42.927 M209.075 43.858 C 208.509 44.425,208.829 45.200,209.629 45.200 C 210.189 45.200,210.417 44.983,210.329 44.533 C 210.187 43.797,209.504 43.430,209.075 43.858 M265.800 44.000 C 265.440 44.582,265.941 45.207,266.724 45.154 C 267.333 45.112,267.331 45.089,266.700 44.924 C 266.315 44.824,266.000 44.588,266.000 44.400 C 266.000 44.212,266.315 43.976,266.700 43.876 C 267.331 43.711,267.333 43.688,266.724 43.646 C 266.352 43.621,265.936 43.780,265.800 44.000 M204.375 45.430 C 203.941 45.953,203.950 46.123,204.426 46.424 C 205.503 47.106,206.201 46.589,205.759 45.436 C 205.450 44.632,205.039 44.630,204.375 45.430 M270.589 45.217 C 270.459 45.428,270.655 45.600,271.025 45.600 C 271.582 45.600,271.611 45.705,271.192 46.209 C 270.770 46.718,270.794 46.777,271.343 46.566 C 271.705 46.428,272.000 46.083,272.000 45.800 C 272.000 45.154,270.907 44.703,270.589 45.217 M205.500 46.233 C 205.119 46.615,204.355 45.997,204.639 45.538 C 204.807 45.264,205.031 45.271,205.318 45.558 C 205.554 45.794,205.636 46.098,205.500 46.233 M199.751 46.984 C 199.614 47.342,199.613 47.747,199.751 47.884 C 199.888 48.021,200.000 47.833,200.000 47.467 C 200.000 46.633,200.676 46.590,200.930 47.408 C 201.073 47.870,201.104 47.854,201.059 47.341 C 200.979 46.427,200.061 46.177,199.751 46.984 M274.984 46.827 C 274.839 47.061,274.828 47.361,274.960 47.493 C 275.092 47.625,275.200 47.523,275.200 47.267 C 275.200 46.538,275.920 46.719,276.124 47.500 C 276.262 48.027,276.319 47.977,276.354 47.300 C 276.402 46.366,275.468 46.043,274.984 46.827 M195.200 48.394 C 195.200 48.643,195.380 48.736,195.600 48.600 C 195.820 48.464,196.000 48.633,196.000 48.976 C 196.000 49.319,196.193 49.600,196.429 49.600 C 196.665 49.600,196.798 49.287,196.725 48.905 C 196.576 48.135,195.200 47.674,195.200 48.394 M279.460 48.587 C 279.336 48.910,279.407 49.281,279.617 49.411 C 279.828 49.541,280.000 49.356,280.000 49.000 C 280.000 48.644,280.183 48.466,280.407 48.604 C 280.630 48.742,280.692 49.051,280.545 49.289 C 280.388 49.542,280.462 49.609,280.721 49.449 C 281.282 49.102,280.886 48.000,280.200 48.000 C 279.917 48.000,279.584 48.264,279.460 48.587 M192.400 50.351 C 192.400 51.499,191.422 52.150,190.808 51.410 C 190.144 50.609,190.578 49.600,191.587 49.600 C 192.116 49.600,192.400 49.863,192.400 50.351 M283.814 50.378 C 283.483 50.913,283.899 51.610,284.524 51.568 C 284.867 51.546,284.861 51.481,284.500 51.335 C 284.225 51.224,284.000 50.968,284.000 50.767 C 284.000 50.266,285.084 50.301,285.337 50.810 C 285.449 51.036,285.494 50.991,285.437 50.710 C 285.305 50.058,284.156 49.823,283.814 50.378 M187.928 52.704 C 188.024 53.377,187.856 53.600,187.251 53.600 C 186.294 53.600,185.840 52.995,186.163 52.151 C 186.506 51.260,187.779 51.658,187.928 52.704 M288.075 52.695 C 288.224 53.465,289.600 53.926,289.600 53.206 C 289.600 52.957,289.420 52.864,289.200 53.000 C 288.980 53.136,288.800 53.072,288.800 52.857 C 288.800 52.642,289.025 52.376,289.300 52.265 C 289.575 52.154,289.382 52.049,288.871 52.032 C 288.195 52.009,287.978 52.190,288.075 52.695 M183.800 54.995 C 183.800 55.910,182.457 56.340,181.985 55.576 C 181.490 54.775,182.025 53.947,182.951 54.079 C 183.491 54.156,183.800 54.489,183.800 54.995 M292.675 54.258 C 292.125 54.808,292.411 55.657,293.100 55.524 C 293.485 55.450,293.800 55.137,293.800 54.828 C 293.800 54.196,293.094 53.839,292.675 54.258 M345.200 55.612 C 337.494 57.722,331.952 61.642,327.706 67.987 C 326.147 70.315,324.000 75.199,324.000 76.414 C 324.000 76.817,323.640 77.260,323.200 77.400 C 322.355 77.668,322.126 78.584,322.800 79.000 C 323.021 79.136,323.200 80.929,323.200 82.999 C 323.200 94.180,329.434 104.279,339.159 108.852 C 341.051 109.742,343.032 110.680,343.560 110.935 C 345.377 111.814,356.996 111.532,359.800 110.540 C 390.349 99.744,384.330 56.033,352.200 55.348 C 349.120 55.283,345.970 55.401,345.200 55.612 M179.600 57.213 C 179.600 58.156,178.542 58.702,177.920 58.080 C 177.298 57.458,177.844 56.400,178.787 56.400 C 179.338 56.400,179.600 56.662,179.600 57.213 M296.613 56.779 C 296.261 57.348,296.710 58.000,297.453 58.000 C 297.803 58.000,298.004 57.719,297.929 57.333 C 297.774 56.530,296.975 56.193,296.613 56.779 M156.687 61.500 C 156.595 62.105,156.520 61.610,156.520 60.400 C 156.520 59.190,156.595 58.695,156.687 59.300 C 156.778 59.905,156.778 60.895,156.687 61.500 M175.528 59.904 C 175.632 60.633,175.464 60.800,174.628 60.800 C 173.898 60.800,173.600 60.588,173.600 60.067 C 173.600 58.516,175.309 58.372,175.528 59.904 M300.667 59.067 C 300.520 59.213,300.403 59.528,300.406 59.767 C 300.409 60.005,300.569 59.952,300.761 59.649 C 300.964 59.328,301.322 59.228,301.616 59.410 C 301.999 59.647,301.943 59.852,301.384 60.261 C 300.979 60.557,300.825 60.800,301.044 60.800 C 301.848 60.800,302.405 59.888,301.942 59.330 C 301.455 58.743,301.069 58.664,300.667 59.067 M171.600 62.413 C 171.600 63.356,170.542 63.902,169.920 63.280 C 169.298 62.658,169.844 61.600,170.787 61.600 C 171.338 61.600,171.600 61.862,171.600 62.413 M304.534 62.227 C 304.201 63.096,305.047 63.913,305.653 63.307 C 306.165 62.795,305.848 61.600,305.200 61.600 C 304.966 61.600,304.667 61.882,304.534 62.227 M305.600 62.600 C 305.600 62.930,305.420 63.200,305.200 63.200 C 304.980 63.200,304.800 62.930,304.800 62.600 C 304.800 62.270,304.980 62.000,305.200 62.000 C 305.420 62.000,305.600 62.270,305.600 62.600 M167.800 65.400 C 167.800 66.324,166.452 66.732,165.971 65.953 C 165.554 65.279,166.329 64.328,167.163 64.488 C 167.513 64.556,167.800 64.966,167.800 65.400 M308.534 65.027 C 308.201 65.896,309.047 66.713,309.653 66.107 C 310.165 65.595,309.848 64.400,309.200 64.400 C 308.966 64.400,308.667 64.682,308.534 65.027 M163.754 67.812 C 164.500 68.557,164.177 69.600,163.200 69.600 C 162.300 69.600,161.839 68.475,162.442 67.749 C 163.008 67.067,163.010 67.067,163.754 67.812 M312.200 68.000 C 311.840 68.582,312.341 69.207,313.124 69.154 C 313.733 69.112,313.731 69.089,313.100 68.924 C 312.715 68.824,312.400 68.588,312.400 68.400 C 312.400 68.212,312.715 67.976,313.100 67.876 C 313.731 67.711,313.733 67.688,313.124 67.646 C 312.752 67.621,312.336 67.780,312.200 68.000 M160.418 71.234 C 160.935 72.199,160.700 72.601,159.817 72.262 C 159.150 72.006,158.951 70.400,159.586 70.400 C 159.798 70.400,160.173 70.775,160.418 71.234 M315.778 71.235 C 315.366 71.902,316.293 72.667,316.845 72.115 C 317.307 71.653,317.018 70.800,316.400 70.800 C 316.206 70.800,315.926 70.996,315.778 71.235 M155.467 74.267 C 154.880 74.853,155.246 75.598,156.100 75.554 C 156.777 75.519,156.827 75.462,156.300 75.324 C 155.915 75.224,155.600 74.988,155.600 74.800 C 155.600 74.612,155.915 74.376,156.300 74.276 C 156.861 74.129,156.874 74.084,156.367 74.046 C 156.018 74.021,155.613 74.120,155.467 74.267 M318.992 74.413 C 318.837 74.664,318.898 75.058,319.128 75.288 C 319.666 75.826,320.919 75.357,320.700 74.700 C 320.477 74.031,319.346 73.841,318.992 74.413 M320.400 74.800 C 320.400 75.020,320.130 75.200,319.800 75.200 C 319.470 75.200,319.200 75.020,319.200 74.800 C 319.200 74.580,319.470 74.400,319.800 74.400 C 320.130 74.400,320.400 74.580,320.400 74.800 M152.000 78.400 C 152.000 78.933,152.267 79.200,152.800 79.200 C 153.333 79.200,153.600 78.933,153.600 78.400 C 153.600 77.867,153.333 77.600,152.800 77.600 C 152.267 77.600,152.000 77.867,152.000 78.400 M324.222 78.035 C 324.634 78.702,323.707 79.467,323.155 78.915 C 322.693 78.453,322.982 77.600,323.600 77.600 C 323.794 77.600,324.074 77.796,324.222 78.035 M378.676 79.900 C 378.575 80.285,378.493 79.970,378.493 79.200 C 378.493 78.430,378.575 78.115,378.676 78.500 C 378.776 78.885,378.776 79.515,378.676 79.900 M177.712 79.492 C 176.784 79.576,175.164 79.577,174.112 79.495 C 173.060 79.412,173.820 79.343,175.800 79.342 C 177.780 79.341,178.640 79.408,177.712 79.492 M327.359 81.436 C 327.684 82.283,327.321 82.800,326.400 82.800 C 325.986 82.800,325.546 82.636,325.422 82.436 C 325.040 81.817,325.648 80.800,326.400 80.800 C 326.793 80.800,327.224 81.086,327.359 81.436 M148.875 81.895 C 148.949 82.278,149.367 82.628,149.805 82.672 C 150.429 82.736,150.449 82.710,149.900 82.548 C 149.515 82.434,149.200 82.188,149.200 82.000 C 149.200 81.812,149.515 81.576,149.900 81.476 C 150.410 81.342,150.348 81.280,149.671 81.246 C 148.991 81.212,148.777 81.387,148.875 81.895 M329.939 84.754 C 330.666 85.214,330.362 86.558,329.494 86.725 C 328.717 86.875,328.191 85.920,328.545 85.000 C 328.805 84.321,329.158 84.259,329.939 84.754 M145.860 85.387 C 145.736 85.710,145.807 86.081,146.017 86.211 C 146.228 86.341,146.400 86.145,146.400 85.775 C 146.400 85.218,146.505 85.189,147.009 85.608 C 147.518 86.030,147.577 86.006,147.366 85.457 C 147.053 84.641,146.162 84.600,145.860 85.387 M378.683 88.095 C 378.587 88.593,378.505 88.280,378.501 87.400 C 378.496 86.520,378.575 86.113,378.675 86.495 C 378.775 86.878,378.779 87.598,378.683 88.095 M333.128 89.504 C 333.232 90.233,333.064 90.400,332.228 90.400 C 331.498 90.400,331.200 90.188,331.200 89.667 C 331.200 88.116,332.909 87.972,333.128 89.504 M142.928 89.395 C 143.049 90.582,144.413 90.710,144.354 89.529 C 144.320 88.852,144.258 88.790,144.124 89.300 C 144.024 89.685,143.788 90.000,143.600 90.000 C 143.412 90.000,143.166 89.685,143.052 89.300 C 142.890 88.751,142.864 88.771,142.928 89.395 M335.928 93.504 C 336.032 94.233,335.864 94.400,335.028 94.400 C 334.298 94.400,334.000 94.188,334.000 93.667 C 334.000 92.116,335.709 91.972,335.928 93.504 M140.295 93.055 C 139.978 93.558,141.067 94.666,141.476 94.257 C 141.618 94.116,141.537 94.000,141.296 94.000 C 141.055 94.000,140.796 93.685,140.720 93.300 C 140.629 92.842,140.482 92.757,140.295 93.055 M338.400 97.400 C 338.400 98.123,338.185 98.400,337.624 98.400 C 336.703 98.400,336.242 97.789,336.552 96.981 C 336.950 95.945,338.400 96.274,338.400 97.400 M137.675 97.495 C 137.821 98.250,139.200 98.733,139.200 98.029 C 139.200 97.793,138.975 97.645,138.700 97.700 C 138.425 97.755,138.245 97.575,138.300 97.300 C 138.355 97.025,138.207 96.800,137.971 96.800 C 137.735 96.800,137.602 97.113,137.675 97.495 M340.721 101.751 C 340.644 102.291,340.311 102.600,339.805 102.600 C 338.890 102.600,338.460 101.257,339.224 100.785 C 340.025 100.290,340.853 100.825,340.721 101.751 M343.000 105.805 C 343.000 106.325,342.688 106.644,342.100 106.728 C 341.208 106.855,340.795 105.739,341.480 105.053 C 342.011 104.522,343.000 105.012,343.000 105.805 M345.022 109.635 C 345.169 109.874,345.109 110.251,344.888 110.472 C 344.392 110.968,342.663 110.146,343.012 109.580 C 343.332 109.062,344.690 109.099,345.022 109.635 M353.700 110.695 C 352.545 110.776,350.655 110.776,349.500 110.695 C 348.345 110.614,349.290 110.548,351.600 110.548 C 353.910 110.548,354.855 110.614,353.700 110.695 M345.269 114.664 C 345.347 115.069,345.678 115.400,346.005 115.400 C 346.863 115.400,346.739 114.238,345.864 114.069 C 345.329 113.966,345.166 114.129,345.269 114.664 M346.846 119.129 C 346.790 120.253,348.153 120.212,348.255 119.088 C 348.300 118.590,348.263 118.562,348.130 118.992 C 347.876 119.812,347.301 119.761,347.076 118.900 C 346.942 118.390,346.880 118.452,346.846 119.129 M348.534 123.427 C 348.179 124.353,348.965 124.965,349.571 124.234 C 350.084 123.617,349.852 122.800,349.164 122.800 C 348.950 122.800,348.667 123.082,348.534 123.427 M349.392 128.013 C 349.237 128.264,349.298 128.658,349.528 128.888 C 350.066 129.426,351.319 128.957,351.100 128.300 C 350.877 127.631,349.746 127.441,349.392 128.013 M350.800 128.400 C 350.800 128.620,350.530 128.800,350.200 128.800 C 349.870 128.800,349.600 128.620,349.600 128.400 C 349.600 128.180,349.870 128.000,350.200 128.000 C 350.530 128.000,350.800 128.180,350.800 128.400 M350.883 132.477 C 350.617 132.743,350.400 133.138,350.400 133.356 C 350.400 133.575,350.643 133.421,350.939 133.016 C 351.348 132.457,351.553 132.401,351.790 132.784 C 351.972 133.078,351.872 133.436,351.551 133.639 C 351.189 133.868,351.163 133.990,351.476 133.994 C 352.266 134.004,352.532 133.161,351.930 132.559 C 351.489 132.118,351.260 132.100,350.883 132.477 M208.105 134.287 C 208.714 134.379,209.614 134.377,210.105 134.282 C 210.597 134.187,210.100 134.111,209.000 134.114 C 207.900 134.117,207.497 134.195,208.105 134.287 M241.705 134.287 C 242.314 134.379,243.214 134.377,243.705 134.282 C 244.197 134.187,243.700 134.111,242.600 134.114 C 241.500 134.117,241.097 134.195,241.705 134.287 M351.734 137.427 C 351.401 138.296,352.247 139.113,352.853 138.507 C 353.365 137.995,353.048 136.800,352.400 136.800 C 352.166 136.800,351.867 137.082,351.734 137.427 M352.800 137.800 C 352.800 138.130,352.620 138.400,352.400 138.400 C 352.180 138.400,352.000 138.130,352.000 137.800 C 352.000 137.470,352.180 137.200,352.400 137.200 C 352.620 137.200,352.800 137.470,352.800 137.800 M352.178 142.035 C 352.031 142.274,352.136 142.679,352.414 142.935 C 352.797 143.289,352.854 143.287,352.650 142.925 C 352.503 142.663,352.702 142.264,353.092 142.037 C 353.736 141.661,353.739 141.623,353.124 141.612 C 352.752 141.605,352.326 141.796,352.178 142.035 M66.000 144.313 C 47.998 154.434,33.368 170.955,26.074 189.400 C 23.122 196.866,21.603 203.220,20.592 212.332 C 18.653 229.825,22.474 250.374,30.074 263.318 C 30.693 264.372,31.200 265.328,31.200 265.441 C 31.200 265.555,32.487 267.572,34.060 269.924 C 56.018 302.750,93.471 317.135,131.606 307.391 C 141.665 304.820,154.401 298.532,161.303 292.728 L 162.406 291.800 160.103 290.222 C 153.424 285.644,142.516 275.650,137.159 269.200 C 135.972 267.770,134.905 266.510,134.789 266.400 C 131.010 262.822,121.874 247.310,118.344 238.478 C 113.592 226.588,110.414 211.485,110.403 200.733 C 110.399 196.663,110.210 196.000,109.053 196.000 C 107.590 196.000,100.655 193.407,97.345 191.622 C 80.333 182.449,70.471 165.926,70.412 146.500 C 70.398 141.645,70.583 141.737,66.000 144.313 M352.800 146.794 C 352.800 147.043,352.980 147.136,353.200 147.000 C 353.420 146.864,353.600 146.928,353.600 147.143 C 353.600 147.358,353.375 147.635,353.100 147.760 C 352.825 147.884,352.960 147.942,353.400 147.887 C 354.385 147.766,354.463 146.662,353.500 146.476 C 353.115 146.402,352.800 146.545,352.800 146.794 M353.000 151.600 C 352.646 152.173,353.132 152.801,353.924 152.794 C 354.507 152.789,354.518 152.734,354.000 152.394 C 353.467 152.044,353.467 151.956,354.000 151.606 C 354.518 151.266,354.507 151.211,353.924 151.206 C 353.552 151.203,353.136 151.380,353.000 151.600 M353.246 156.900 C 353.281 157.577,353.338 157.627,353.476 157.100 C 353.576 156.715,353.845 156.400,354.072 156.400 C 354.301 156.400,354.366 156.713,354.219 157.100 C 354.016 157.634,354.064 157.690,354.421 157.335 C 354.975 156.785,354.596 156.000,353.776 156.000 C 353.432 156.000,353.219 156.362,353.246 156.900 M353.000 161.200 C 352.643 161.778,353.138 162.405,353.924 162.368 C 354.340 162.349,354.408 162.259,354.100 162.135 C 353.825 162.024,353.600 161.758,353.600 161.543 C 353.600 161.328,353.780 161.264,354.000 161.400 C 354.220 161.536,354.400 161.457,354.400 161.224 C 354.400 160.686,353.329 160.668,353.000 161.200 M353.200 165.978 C 353.733 166.353,353.733 166.447,353.200 166.822 C 352.703 167.171,352.738 167.221,353.400 167.116 C 353.840 167.046,354.200 166.724,354.200 166.400 C 354.200 166.076,353.840 165.754,353.400 165.684 C 352.738 165.579,352.703 165.629,353.200 165.978 M352.200 170.800 C 351.846 171.373,352.332 172.001,353.124 171.994 C 353.707 171.989,353.718 171.934,353.200 171.594 C 352.667 171.244,352.667 171.156,353.200 170.806 C 353.718 170.466,353.707 170.411,353.124 170.406 C 352.752 170.403,352.336 170.580,352.200 170.800 M176.101 173.000 C 176.105 173.880,176.187 174.193,176.283 173.695 C 176.379 173.198,176.375 172.478,176.275 172.095 C 176.175 171.713,176.096 172.120,176.101 173.000 M351.734 175.427 C 351.401 176.296,352.247 177.113,352.853 176.507 C 353.365 175.995,353.048 174.800,352.400 174.800 C 352.166 174.800,351.867 175.082,351.734 175.427 M352.800 175.800 C 352.800 176.130,352.620 176.400,352.400 176.400 C 352.180 176.400,352.000 176.130,352.000 175.800 C 352.000 175.470,352.180 175.200,352.400 175.200 C 352.620 175.200,352.800 175.470,352.800 175.800 M350.800 179.992 C 350.276 180.323,350.291 180.462,350.914 181.086 C 351.538 181.709,351.677 181.724,352.008 181.200 C 352.714 180.083,351.917 179.286,350.800 179.992 M352.000 180.333 C 352.000 180.854,351.524 181.201,351.138 180.961 C 350.724 180.706,351.081 180.000,351.624 180.000 C 351.831 180.000,352.000 180.150,352.000 180.333 M349.392 184.813 C 349.237 185.064,349.298 185.458,349.528 185.688 C 350.066 186.226,351.319 185.757,351.100 185.100 C 350.877 184.431,349.746 184.241,349.392 184.813 M350.800 185.200 C 350.800 185.420,350.530 185.600,350.200 185.600 C 349.870 185.600,349.600 185.420,349.600 185.200 C 349.600 184.980,349.870 184.800,350.200 184.800 C 350.530 184.800,350.800 184.980,350.800 185.200 M348.228 189.555 C 347.864 190.143,349.163 190.997,349.662 190.498 C 349.898 190.262,349.969 189.874,349.822 189.635 C 349.498 189.111,348.532 189.062,348.228 189.555 M245.724 195.000 C 245.726 196.320,245.801 196.812,245.890 196.093 C 245.979 195.374,245.977 194.294,245.886 193.693 C 245.795 193.092,245.722 193.680,245.724 195.000 M341.720 194.800 C 341.720 196.010,341.795 196.505,341.887 195.900 C 341.978 195.295,341.978 194.305,341.887 193.700 C 341.795 193.095,341.720 193.590,341.720 194.800 M346.951 194.184 C 346.814 194.542,346.813 194.947,346.951 195.084 C 347.088 195.221,347.200 195.033,347.200 194.667 C 347.200 193.833,347.876 193.790,348.130 194.608 C 348.273 195.070,348.304 195.054,348.259 194.541 C 348.179 193.627,347.261 193.377,346.951 194.184 M345.347 198.594 C 344.989 199.528,345.906 200.394,346.410 199.597 C 346.617 199.268,346.734 198.831,346.668 198.625 C 346.453 197.942,345.605 197.922,345.347 198.594 M343.700 202.665 C 342.986 202.953,343.082 203.869,343.857 204.166 C 344.406 204.377,344.430 204.318,344.008 203.809 C 343.590 203.306,343.615 203.200,344.151 203.200 C 344.508 203.200,344.800 203.020,344.800 202.800 C 344.800 202.374,344.509 202.339,343.700 202.665 M341.254 206.005 C 341.221 206.625,341.490 207.162,341.956 207.405 C 359.745 216.695,374.616 237.226,378.747 258.200 C 380.182 265.485,380.180 278.610,378.743 285.200 C 377.553 290.656,375.903 296.554,374.994 298.600 C 371.253 307.018,368.875 310.987,363.804 317.284 C 351.936 332.020,337.345 340.342,317.665 343.599 C 313.949 344.214,300.633 344.228,297.200 343.621 C 295.770 343.368,293.520 342.976,292.200 342.751 C 289.367 342.266,284.503 340.876,280.625 339.443 C 276.881 338.059,276.831 338.405,280.550 339.954 C 297.897 347.175,321.865 346.230,339.308 337.638 C 391.040 312.154,394.616 239.110,345.598 209.171 C 344.389 208.432,343.162 207.597,342.871 207.314 C 342.581 207.031,342.188 206.800,341.999 206.800 C 341.810 206.800,341.578 206.395,341.482 205.900 C 341.320 205.058,341.305 205.065,341.254 206.005 M340.800 209.400 C 340.800 209.730,340.980 210.000,341.200 210.000 C 341.420 210.000,341.600 209.730,341.600 209.400 C 341.600 209.070,341.420 208.800,341.200 208.800 C 340.980 208.800,340.800 209.070,340.800 209.400 M21.490 214.493 C 21.401 215.212,21.326 214.720,21.324 213.400 C 21.322 212.080,21.395 211.492,21.486 212.093 C 21.577 212.694,21.579 213.774,21.490 214.493 M340.368 213.700 C 340.249 214.560,340.310 215.050,340.512 214.848 C 340.705 214.655,340.798 213.981,340.719 213.349 C 340.587 212.291,340.559 212.319,340.368 213.700 M164.893 216.000 C 164.893 216.770,164.975 217.085,165.076 216.700 C 165.176 216.315,165.176 215.685,165.076 215.300 C 164.975 214.915,164.893 215.230,164.893 216.000 M224.700 215.082 C 225.195 215.178,226.005 215.178,226.500 215.082 C 226.995 214.987,226.590 214.909,225.600 214.909 C 224.610 214.909,224.205 214.987,224.700 215.082 M176.093 216.800 C 176.093 217.570,176.175 217.885,176.276 217.500 C 176.376 217.115,176.376 216.485,176.276 216.100 C 176.175 215.715,176.093 216.030,176.093 216.800 M339.654 218.067 C 339.625 218.434,339.484 219.064,339.341 219.467 C 339.141 220.033,339.195 220.096,339.575 219.746 C 339.846 219.497,339.987 218.867,339.888 218.346 C 339.790 217.826,339.684 217.700,339.654 218.067 M21.490 231.693 C 21.401 232.412,21.326 231.920,21.324 230.600 C 21.322 229.280,21.395 228.692,21.486 229.293 C 21.577 229.894,21.579 230.974,21.490 231.693 M199.700 244.287 C 200.305 244.378,201.295 244.378,201.900 244.287 C 202.505 244.195,202.010 244.120,200.800 244.120 C 199.590 244.120,199.095 244.195,199.700 244.287 M249.300 244.287 C 249.905 244.378,250.895 244.378,251.500 244.287 C 252.105 244.195,251.610 244.120,250.400 244.120 C 249.190 244.120,248.695 244.195,249.300 244.287 M208.100 244.676 C 208.485 244.776,209.115 244.776,209.500 244.676 C 209.885 244.575,209.570 244.493,208.800 244.493 C 208.030 244.493,207.715 244.575,208.100 244.676 M241.700 244.676 C 242.085 244.776,242.715 244.776,243.100 244.676 C 243.485 244.575,243.170 244.493,242.400 244.493 C 241.630 244.493,241.315 244.575,241.700 244.676 M216.528 255.900 C 221.768 255.963,230.228 255.963,235.328 255.900 C 240.427 255.836,236.140 255.785,225.800 255.785 C 215.460 255.785,211.287 255.837,216.528 255.900 M307.578 277.100 L 306.200 278.600 307.700 277.222 C 309.096 275.938,309.384 275.600,309.078 275.600 C 309.012 275.600,308.337 276.275,307.578 277.100 M102.100 309.089 C 101.385 309.178,100.215 309.178,99.500 309.089 C 98.785 309.001,99.370 308.928,100.800 308.928 C 102.230 308.928,102.815 309.001,102.100 309.089 M117.107 309.086 C 116.506 309.177,115.426 309.179,114.707 309.090 C 113.988 309.001,114.480 308.926,115.800 308.924 C 117.120 308.922,117.708 308.995,117.107 309.086 M244.806 309.900 C 244.839 311.509,255.949 324.107,261.000 328.264 C 266.454 332.752,265.420 331.546,259.318 326.301 C 254.870 322.477,249.349 316.196,246.404 311.606 C 245.156 309.662,244.793 309.274,244.806 309.900 M266.669 332.432 C 267.166 333.033,269.600 334.564,269.600 334.276 C 269.600 334.183,268.835 333.602,267.900 332.985 C 266.965 332.368,266.411 332.120,266.669 332.432 M270.800 335.167 C 271.763 335.952,272.400 336.208,272.400 335.810 C 272.400 335.706,271.815 335.335,271.100 334.986 L 269.800 334.352 270.800 335.167 M272.800 336.160 C 272.800 336.496,276.847 338.486,277.073 338.260 C 277.179 338.154,276.397 337.656,275.333 337.154 C 274.270 336.652,273.265 336.172,273.100 336.087 C 272.935 336.003,272.800 336.035,272.800 336.160 " stroke="none" fill="#879bf9" fill-rule="evenodd"></path><path id="path4" d="M0.000 200.000 L 0.000 400.000 200.000 400.000 L 400.000 400.000 400.000 200.000 L 400.000 0.000 200.000 0.000 L 0.000 0.000 0.000 200.000 M335.443 30.850 C 342.986 35.379,344.536 45.131,338.718 51.443 C 327.544 63.565,308.696 49.024,317.642 35.184 C 321.403 29.364,329.634 27.361,335.443 30.850 M181.400 41.025 C 195.733 44.635,200.839 63.049,190.539 73.987 C 177.876 87.435,155.839 78.806,155.839 60.400 C 155.839 46.811,167.943 37.637,181.400 41.025 M238.666 40.627 C 238.999 41.496,238.153 42.313,237.547 41.707 C 237.035 41.195,237.352 40.000,238.000 40.000 C 238.234 40.000,238.533 40.282,238.666 40.627 M229.000 41.400 C 229.000 41.803,228.797 42.201,228.549 42.284 C 228.022 42.459,227.488 41.305,227.835 40.743 C 228.208 40.140,229.000 40.587,229.000 41.400 M234.000 40.976 C 234.000 41.293,233.804 41.674,233.565 41.822 C 233.000 42.171,232.229 41.400,232.578 40.835 C 232.971 40.200,234.000 40.303,234.000 40.976 M243.600 40.976 C 243.600 41.293,243.404 41.674,243.165 41.822 C 242.600 42.171,241.829 41.400,242.178 40.835 C 242.571 40.200,243.600 40.303,243.600 40.976 M248.266 41.027 C 248.599 41.896,247.753 42.713,247.147 42.107 C 246.635 41.595,246.952 40.400,247.600 40.400 C 247.834 40.400,248.133 40.682,248.266 41.027 M224.400 41.776 C 224.400 42.093,224.204 42.474,223.965 42.622 C 223.400 42.971,222.629 42.200,222.978 41.635 C 223.371 41.000,224.400 41.103,224.400 41.776 M253.124 41.900 C 253.050 42.285,252.724 42.600,252.400 42.600 C 252.076 42.600,251.750 42.285,251.676 41.900 C 251.582 41.409,251.798 41.200,252.400 41.200 C 253.002 41.200,253.218 41.409,253.124 41.900 M219.556 42.147 C 219.902 42.564,219.862 42.817,219.388 43.210 C 218.619 43.848,217.860 43.230,218.230 42.267 C 218.540 41.457,218.952 41.420,219.556 42.147 M257.866 42.227 C 258.199 43.096,257.353 43.913,256.747 43.307 C 256.235 42.795,256.552 41.600,257.200 41.600 C 257.434 41.600,257.733 41.882,257.866 42.227 M215.200 43.606 C 215.200 44.128,213.889 44.449,213.470 44.030 C 212.834 43.394,213.958 42.267,214.653 42.844 C 214.954 43.094,215.200 43.437,215.200 43.606 M262.500 44.060 C 261.783 44.777,260.613 43.707,261.261 42.927 C 261.665 42.440,261.818 42.447,262.348 42.977 C 262.818 43.447,262.854 43.706,262.500 44.060 M210.329 44.533 C 210.417 44.983,210.189 45.200,209.629 45.200 C 209.173 45.200,208.800 44.960,208.800 44.667 C 208.800 43.442,210.096 43.328,210.329 44.533 M267.200 44.400 C 267.200 44.840,266.941 45.200,266.624 45.200 C 265.917 45.200,265.465 44.542,265.800 44.000 C 266.235 43.296,267.200 43.572,267.200 44.400 M205.759 45.436 C 206.201 46.589,205.503 47.106,204.426 46.424 C 203.950 46.123,203.941 45.953,204.375 45.430 C 205.039 44.630,205.450 44.632,205.759 45.436 M272.000 45.800 C 272.000 46.459,270.904 46.892,270.577 46.363 C 270.441 46.142,270.428 45.703,270.549 45.388 C 270.809 44.710,272.000 45.048,272.000 45.800 M201.129 47.333 C 201.217 47.783,200.989 48.000,200.429 48.000 C 199.973 48.000,199.600 47.760,199.600 47.467 C 199.600 46.242,200.896 46.128,201.129 47.333 M276.400 47.200 C 276.400 47.640,276.141 48.000,275.824 48.000 C 275.117 48.000,274.665 47.342,275.000 46.800 C 275.435 46.096,276.400 46.372,276.400 47.200 M196.725 48.905 C 196.817 49.385,196.602 49.600,196.029 49.600 C 195.457 49.600,195.200 49.343,195.200 48.771 C 195.200 47.746,196.524 47.862,196.725 48.905 M280.940 48.587 C 281.210 49.290,280.587 49.757,279.788 49.451 C 279.110 49.191,279.448 48.000,280.200 48.000 C 280.483 48.000,280.816 48.264,280.940 48.587 M285.484 50.651 C 285.681 51.244,284.374 51.734,283.888 51.248 C 283.680 51.040,283.637 50.664,283.792 50.413 C 284.133 49.861,285.274 50.022,285.484 50.651 M289.600 52.829 C 289.600 53.854,288.276 53.738,288.075 52.695 C 287.983 52.215,288.198 52.000,288.771 52.000 C 289.343 52.000,289.600 52.257,289.600 52.829 M293.800 54.828 C 293.800 55.137,293.485 55.450,293.100 55.524 C 292.411 55.657,292.125 54.808,292.675 54.258 C 293.094 53.839,293.800 54.196,293.800 54.828 M360.676 56.470 C 378.021 62.518,385.234 83.253,375.363 98.685 C 371.935 104.043,366.527 108.163,359.800 110.540 C 356.996 111.532,345.377 111.814,343.560 110.935 C 343.032 110.680,341.051 109.742,339.159 108.852 C 329.434 104.279,323.200 94.180,323.200 82.999 C 323.200 80.929,323.021 79.136,322.800 79.000 C 322.126 78.584,322.355 77.668,323.200 77.400 C 323.640 77.260,324.000 76.817,324.000 76.414 C 324.000 75.199,326.147 70.315,327.706 67.987 C 331.952 61.642,337.494 57.722,345.200 55.612 C 348.033 54.837,357.496 55.361,360.676 56.470 M297.929 57.333 C 298.004 57.719,297.803 58.000,297.453 58.000 C 296.710 58.000,296.261 57.348,296.613 56.779 C 296.975 56.193,297.774 56.530,297.929 57.333 M301.942 59.330 C 302.262 59.716,302.254 59.986,301.910 60.330 C 301.274 60.966,300.932 60.921,300.641 60.164 C 300.179 58.958,301.128 58.349,301.942 59.330 M305.866 62.227 C 306.199 63.096,305.353 63.913,304.747 63.307 C 304.235 62.795,304.552 61.600,305.200 61.600 C 305.434 61.600,305.733 61.882,305.866 62.227 M309.866 65.027 C 310.199 65.896,309.353 66.713,308.747 66.107 C 308.235 65.595,308.552 64.400,309.200 64.400 C 309.434 64.400,309.733 64.682,309.866 65.027 M313.600 68.400 C 313.600 68.840,313.341 69.200,313.024 69.200 C 312.317 69.200,311.865 68.542,312.200 68.000 C 312.635 67.296,313.600 67.572,313.600 68.400 M317.022 71.235 C 317.434 71.902,316.507 72.667,315.955 72.115 C 315.493 71.653,315.782 70.800,316.400 70.800 C 316.594 70.800,316.874 70.996,317.022 71.235 M156.800 74.800 C 156.800 75.333,156.533 75.600,156.000 75.600 C 155.229 75.600,154.916 74.817,155.467 74.267 C 156.017 73.716,156.800 74.029,156.800 74.800 M320.700 74.700 C 320.919 75.357,319.666 75.826,319.128 75.288 C 318.898 75.058,318.837 74.664,318.992 74.413 C 319.346 73.841,320.477 74.031,320.700 74.700 M153.600 78.400 C 153.600 78.933,153.333 79.200,152.800 79.200 C 152.267 79.200,152.000 78.933,152.000 78.400 C 152.000 77.867,152.267 77.600,152.800 77.600 C 153.333 77.600,153.600 77.867,153.600 78.400 M240.200 79.796 C 269.376 83.087,296.052 97.636,315.018 120.600 C 316.108 121.920,317.095 123.090,317.211 123.200 C 317.327 123.310,318.420 124.750,319.640 126.400 C 335.601 147.990,342.560 171.391,341.678 200.500 C 341.546 204.829,341.621 206.800,341.915 206.800 C 342.150 206.800,342.581 207.031,342.871 207.314 C 343.162 207.597,344.389 208.432,345.598 209.171 C 394.616 239.110,391.040 312.154,339.308 337.638 C 322.366 345.984,298.713 347.145,281.763 340.464 L 279.738 339.666 277.187 343.333 C 269.177 354.845,256.475 363.941,242.486 368.184 C 233.789 370.822,216.148 370.907,208.028 368.350 C 175.541 358.121,156.550 328.195,162.130 296.026 C 162.899 291.595,162.860 291.500,160.900 293.062 C 127.769 319.474,75.231 315.147,44.966 283.513 C 40.112 278.440,31.200 266.740,31.200 265.441 C 31.200 265.328,30.693 264.372,30.074 263.318 C 28.603 260.812,25.880 254.426,24.423 250.065 C 18.911 233.564,18.607 214.167,23.585 196.600 C 29.681 175.089,47.832 153.230,67.788 143.367 L 70.691 141.932 70.921 139.466 C 72.479 122.810,86.132 105.733,102.949 99.404 C 113.387 95.476,127.965 95.413,138.400 99.250 C 142.955 100.925,149.941 104.764,150.831 106.081 C 150.958 106.269,151.858 105.728,152.831 104.878 C 174.868 85.633,207.896 76.152,240.200 79.796 M150.400 82.029 C 150.400 82.602,150.185 82.817,149.705 82.725 C 148.662 82.524,148.546 81.200,149.571 81.200 C 150.143 81.200,150.400 81.457,150.400 82.029 M147.340 85.387 C 147.610 86.090,146.987 86.557,146.188 86.251 C 145.510 85.991,145.848 84.800,146.600 84.800 C 146.883 84.800,147.216 85.064,147.340 85.387 M144.400 89.629 C 144.400 90.202,144.185 90.417,143.705 90.325 C 142.662 90.124,142.546 88.800,143.571 88.800 C 144.143 88.800,144.400 89.057,144.400 89.629 M141.750 93.119 C 142.195 93.839,141.293 94.575,140.635 94.029 C 140.291 93.743,140.107 93.350,140.228 93.155 C 140.501 92.713,141.485 92.690,141.750 93.119 M139.200 97.629 C 139.200 98.202,138.985 98.417,138.505 98.325 C 137.462 98.124,137.346 96.800,138.371 96.800 C 138.943 96.800,139.200 97.057,139.200 97.629 M346.600 114.805 C 346.600 115.663,345.438 115.539,345.269 114.664 C 345.166 114.129,345.329 113.966,345.864 114.069 C 346.269 114.147,346.600 114.478,346.600 114.805 M348.325 119.095 C 348.124 120.138,346.800 120.254,346.800 119.229 C 346.800 118.657,347.057 118.400,347.629 118.400 C 348.202 118.400,348.417 118.615,348.325 119.095 M349.811 123.218 C 350.186 123.824,349.170 124.930,348.684 124.444 C 348.235 123.995,348.584 122.800,349.164 122.800 C 349.378 122.800,349.669 122.988,349.811 123.218 M351.100 128.300 C 351.319 128.957,350.066 129.426,349.528 128.888 C 349.298 128.658,349.237 128.264,349.392 128.013 C 349.746 127.441,350.877 127.631,351.100 128.300 M352.224 133.562 C 351.897 134.090,351.584 134.104,350.826 133.624 C 350.342 133.318,350.336 133.159,350.791 132.610 C 351.416 131.857,352.736 132.733,352.224 133.562 M203.400 134.377 C 183.046 135.192,172.340 142.037,167.272 157.477 C 163.718 168.300,163.737 221.060,167.297 232.400 C 171.012 244.230,179.684 251.658,193.084 254.489 C 199.817 255.911,251.789 255.909,258.524 254.487 C 274.682 251.075,283.374 241.418,285.792 224.193 C 286.557 218.746,286.686 172.028,285.952 166.421 C 283.508 147.754,273.210 137.026,255.600 134.803 C 251.387 134.271,213.728 133.964,203.400 134.377 M353.066 137.427 C 353.399 138.296,352.553 139.113,351.947 138.507 C 351.435 137.995,351.752 136.800,352.400 136.800 C 352.634 136.800,352.933 137.082,353.066 137.427 M353.750 142.215 C 353.887 142.572,353.726 142.930,353.366 143.068 C 352.619 143.355,351.802 142.644,352.178 142.035 C 352.571 141.400,353.477 141.504,353.750 142.215 M256.673 146.137 C 267.727 148.686,273.339 155.041,274.759 166.619 C 275.338 171.344,275.356 218.561,274.780 223.210 C 273.355 234.716,267.440 241.422,256.800 243.598 C 247.811 245.436,200.595 245.159,193.074 243.224 C 182.690 240.552,177.517 233.648,176.423 221.000 C 175.891 214.845,175.880 174.830,176.409 168.854 C 177.744 153.769,184.413 147.022,199.400 145.594 C 206.076 144.958,253.510 145.408,256.673 146.137 M354.200 147.200 C 354.200 147.524,353.885 147.850,353.500 147.924 C 353.009 148.018,352.800 147.802,352.800 147.200 C 352.800 146.598,353.009 146.382,353.500 146.476 C 353.885 146.550,354.200 146.876,354.200 147.200 M354.400 152.000 C 354.400 152.440,354.141 152.800,353.824 152.800 C 353.117 152.800,352.665 152.142,353.000 151.600 C 353.435 150.896,354.400 151.172,354.400 152.000 M255.000 155.865 C 248.057 159.525,250.336 169.593,258.108 169.599 C 265.800 169.603,268.199 160.080,261.530 156.014 C 259.908 155.025,256.731 154.952,255.000 155.865 M354.600 156.800 C 354.600 157.124,354.285 157.450,353.900 157.524 C 353.409 157.618,353.200 157.402,353.200 156.800 C 353.200 156.198,353.409 155.982,353.900 156.076 C 354.285 156.150,354.600 156.476,354.600 156.800 M354.400 161.600 C 354.400 162.040,354.141 162.400,353.824 162.400 C 353.117 162.400,352.665 161.742,353.000 161.200 C 353.435 160.496,354.400 160.772,354.400 161.600 M219.960 164.201 C 206.272 166.929,196.354 177.575,194.718 191.294 C 194.252 195.204,194.665 201.007,195.572 203.296 C 195.769 203.793,196.336 205.280,196.833 206.600 C 202.494 221.640,220.473 229.821,235.928 224.389 C 253.714 218.137,261.886 198.085,253.608 181.000 C 247.636 168.673,233.338 161.535,219.960 164.201 M354.200 166.400 C 354.200 166.724,353.885 167.050,353.500 167.124 C 353.009 167.218,352.800 167.002,352.800 166.400 C 352.800 165.798,353.009 165.582,353.500 165.676 C 353.885 165.750,354.200 166.076,354.200 166.400 M353.600 171.200 C 353.600 171.640,353.341 172.000,353.024 172.000 C 352.317 172.000,351.865 171.342,352.200 170.800 C 352.635 170.096,353.600 170.372,353.600 171.200 M230.034 175.207 C 244.593 177.967,250.879 196.965,240.930 208.134 C 228.618 221.956,205.600 213.480,205.600 195.123 C 205.600 182.045,217.018 172.738,230.034 175.207 M353.066 175.427 C 353.399 176.296,352.553 177.113,351.947 176.507 C 351.435 175.995,351.752 174.800,352.400 174.800 C 352.634 174.800,352.933 175.082,353.066 175.427 M352.268 180.225 C 352.583 181.219,351.644 181.815,350.914 181.086 C 350.291 180.462,350.276 180.323,350.800 179.992 C 351.474 179.566,352.091 179.664,352.268 180.225 M351.100 185.100 C 351.319 185.757,350.066 186.226,349.528 185.688 C 349.298 185.458,349.237 185.064,349.392 184.813 C 349.746 184.241,350.877 184.431,351.100 185.100 M349.822 189.635 C 349.969 189.874,349.898 190.262,349.662 190.498 C 349.163 190.997,347.864 190.143,348.228 189.555 C 348.532 189.062,349.498 189.111,349.822 189.635 M348.329 194.533 C 348.417 194.983,348.189 195.200,347.629 195.200 C 347.173 195.200,346.800 194.960,346.800 194.667 C 346.800 193.442,348.096 193.328,348.329 194.533 M346.668 198.625 C 346.734 198.831,346.617 199.268,346.410 199.597 C 345.906 200.394,344.989 199.528,345.347 198.594 C 345.605 197.922,346.453 197.942,346.668 198.625 M344.800 203.133 C 344.800 204.077,344.464 204.399,343.761 204.130 C 343.065 203.863,343.027 202.937,343.700 202.665 C 344.597 202.303,344.800 202.389,344.800 203.133 " stroke="none" fill="#fbfbfb" fill-rule="evenodd"></path></g></svg>